<svg width="1001" height="486" fill="none" xmlns="http://www.w3.org/2000/svg"><g clip-path="url(#clip0)"><path fill="#49547E" d="M0 0h1001v486H0z"/><g stroke="#CDB891"><path d="M880-130v260h79v141h102" stroke-width="7"/><path d="M862-112v260h79v141h102" stroke-width="7"/><path d="M843-91v260h79v141h102" stroke-width="7"/><path d="M569-82h254v254L569-82z" stroke-width="4"/><path d="M1048 475L550-32" stroke-width="5"/><path stroke-width="4" d="M500.75 30.828L712.672 242.75 500.75 454.671 288.83 242.749z"/><path stroke-width="11" d="M500.5 7.278L736.222 243 500.5 478.722 264.778 243z"/><path stroke-width="7" d="M501.25-43.05l420.8 420.8-398.3 398.3-420.8-420.8z"/><path d="M449-23L-58 475" stroke-width="5"/><path d="M178 172V-82h254L178 172z" stroke-width="4"/><path d="M159-91v260H80v141H-22" stroke-width="7"/><path d="M140-112v260H61v141H-41" stroke-width="7"/><path d="M122-130v260H43v141H-59" stroke-width="7"/></g><g fill="#313131"><path d="M337.62 269.68c-10.653 11.447-22.893 17.17-36.72 17.17-8.047 0-15.527-1.757-22.44-5.27-6.8-3.513-12.693-8.103-17.68-13.77-4.987-5.78-8.953-12.353-11.9-19.72-2.833-7.367-4.25-14.96-4.25-22.78 0-8.16 1.417-15.867 4.25-23.12 2.833-7.367 6.743-13.827 11.73-19.38 4.987-5.667 10.937-10.143 17.85-13.43 6.913-3.287 14.393-4.93 22.44-4.93 11.673 0 21.25 2.437 28.73 7.31 7.593 4.873 13.373 11.22 17.34 19.04l-11.73 8.16c-3.627-7.027-8.443-12.24-14.45-15.64-6.007-3.4-12.75-5.1-20.23-5.1-6.12 0-11.673 1.36-16.66 4.08a39.478 39.478 0 00-12.75 10.54c-3.513 4.307-6.233 9.35-8.16 15.13-1.927 5.667-2.89 11.56-2.89 17.68 0 6.46 1.077 12.58 3.23 18.36 2.153 5.667 5.1 10.71 8.84 15.13a41.575 41.575 0 0013.26 10.2c5.1 2.493 10.653 3.74 16.66 3.74 13.147 0 24.99-6.347 35.53-19.04v-16.66h-26.01v-11.56h38.93V286h-12.92v-16.32zm241.16 17.34c-6.007 0-11.56-1.247-16.66-3.74a41.363 41.363 0 01-12.92-10.03c-3.627-4.193-6.46-9.01-8.5-14.45-1.927-5.44-2.89-11.107-2.89-17 0-6.233.963-12.127 2.89-17.68 2.04-5.667 4.873-10.597 8.5-14.79a39.266 39.266 0 0112.92-9.86c5.1-2.493 10.71-3.74 16.83-3.74 7.48 0 13.94 1.813 19.38 5.44 5.44 3.627 10.03 8.217 13.77 13.77v-17.68h13.26v87.72c0 6.347-1.19 11.9-3.57 16.66-2.38 4.873-5.61 8.953-9.69 12.24-4.08 3.287-8.897 5.78-14.45 7.48-5.44 1.7-11.277 2.55-17.51 2.55-10.087 0-18.304-1.757-24.65-5.27-6.234-3.4-11.447-8.16-15.64-14.28l8.67-7.65c3.513 5.213 8.046 9.123 13.6 11.73 5.553 2.607 11.56 3.91 18.02 3.91 4.08 0 7.933-.567 11.56-1.7 3.74-1.133 6.97-2.833 9.69-5.1 2.72-2.267 4.873-5.1 6.46-8.5 1.7-3.4 2.55-7.423 2.55-12.07v-15.64a38.44 38.44 0 01-6.12 7.48 40.352 40.352 0 01-7.48 5.61 38.32 38.32 0 01-8.67 3.4 37.124 37.124 0 01-9.35 1.19zm4.59-12.24c3.173 0 6.233-.567 9.18-1.7a35.453 35.453 0 008.16-4.42c2.493-1.927 4.59-4.08 6.29-6.46 1.7-2.38 2.833-4.817 3.4-7.31v-25.5a32.337 32.337 0 00-4.93-8.33 32.548 32.548 0 00-6.63-6.46 28.534 28.534 0 00-8.16-4.42 25.424 25.424 0 00-8.67-1.53c-4.534 0-8.614.963-12.24 2.89a29.214 29.214 0 00-9.01 7.65c-2.494 3.173-4.42 6.8-5.78 10.88-1.36 3.967-2.04 7.99-2.04 12.07 0 4.42.793 8.613 2.38 12.58 1.586 3.967 3.74 7.423 6.46 10.37a32.794 32.794 0 009.52 7.14c3.74 1.7 7.763 2.55 12.07 2.55zm66.474-112.88h14.96v101.15c0 3.287.85 5.893 2.55 7.82 1.813 1.813 4.306 2.72 7.48 2.72 1.246 0 2.72-.17 4.42-.51 1.7-.453 3.286-.963 4.76-1.53l2.38 12.07c-2.494 1.02-5.44 1.87-8.84 2.55-3.4.68-6.404 1.02-9.01 1.02-5.78 0-10.37-1.643-13.77-4.93-3.287-3.287-4.93-7.877-4.93-13.77V161.9zm87.572 125.8c-6.686 0-12.806-1.19-18.36-3.57-5.553-2.493-10.313-5.837-14.28-10.03-3.966-4.193-7.083-9.067-9.35-14.62-2.153-5.667-3.23-11.617-3.23-17.85 0-6.233 1.077-12.127 3.23-17.68 2.267-5.553 5.384-10.427 9.35-14.62 4.08-4.193 8.897-7.48 14.45-9.86 5.554-2.493 11.674-3.74 18.36-3.74 6.687 0 12.75 1.247 18.19 3.74 5.554 2.493 10.257 5.837 14.11 10.03 3.854 4.08 6.8 8.897 8.84 14.45 2.154 5.44 3.23 11.107 3.23 17 0 1.247-.056 2.38-.17 3.4 0 1.02-.056 1.813-.17 2.38h-73.61c.34 4.42 1.36 8.443 3.06 12.07 1.7 3.627 3.91 6.743 6.63 9.35a30.969 30.969 0 009.18 6.12 28.3 28.3 0 0011.05 2.21c2.72 0 5.384-.34 7.99-1.02a38.125 38.125 0 007.31-3.06c2.267-1.247 4.25-2.777 5.95-4.59 1.814-1.813 3.174-3.853 4.08-6.12l12.92 3.57c-1.473 3.287-3.513 6.29-6.12 9.01-2.493 2.72-5.44 5.1-8.84 7.14-3.286 1.927-6.97 3.457-11.05 4.59-4.08 1.133-8.33 1.7-12.75 1.7zm30.43-52.02c-.34-4.193-1.416-8.047-3.23-11.56-1.7-3.627-3.91-6.687-6.63-9.18-2.606-2.493-5.666-4.42-9.18-5.78-3.513-1.473-7.253-2.21-11.22-2.21-3.966 0-7.706.737-11.22 2.21a27.982 27.982 0 00-9.35 5.95c-2.606 2.493-4.76 5.497-6.46 9.01-1.586 3.513-2.55 7.367-2.89 11.56h60.18z"/><g stroke="#AB9469" stroke-width="4"><path d="M509.5 326.848V369H387v-80.342c1.666 1.509 3.506 2.956 5.856 4.131C396.904 294.813 402.332 296 411 296c17.784 0 29.642-7.359 35.468-12.683 2.779 2.553 7.207 5.388 12.856 7.719C466.159 293.857 474.917 296 485 296c9.919 0 16.032-1.215 20.176-3.271 1.796-.891 3.185-1.923 4.324-3.016v37.135zm4-3.428l20.5-17.572v47.266l-20.5-14.643V323.42z"/><path d="M453 241.5c0 24.639-19.313 44.5-43 44.5s-43-19.861-43-44.5 19.313-44.5 43-44.5 43 19.861 43 44.5z"/><path d="M528 241.5c0 24.639-19.313 44.5-43 44.5s-43-19.861-43-44.5 19.313-44.5 43-44.5 43 19.861 43 44.5z"/></g></g></g><defs><clipPath id="clip0"><path fill="#fff" d="M0 0h1001v486H0z"/></clipPath></defs></svg>