<?xml version="1.0" standalone="no"?>
<!DOCTYPE svg PUBLIC "-//W3C//DTD SVG 20010904//EN"
 "http://www.w3.org/TR/2001/REC-SVG-20010904/DTD/svg10.dtd">
<svg version="1.0" xmlns="http://www.w3.org/2000/svg"
 width="626.000000pt" height="626.000000pt" viewBox="0 0 626.000000 626.000000"
 preserveAspectRatio="xMidYMid meet">
<metadata>
Created by potrace 1.11, written by Peter Selinger 2001-2013
</metadata>
<g transform="translate(0.000000,626.000000) scale(0.100000,-0.100000)"
fill="#000000" stroke="none">
<path d="M20 5923 l0 -338 25 -24 c14 -13 25 -33 25 -45 0 -30 -27 -66 -51
-66 -15 0 -19 -7 -19 -35 0 -29 4 -35 21 -35 63 0 127 89 114 157 -4 22 -20
50 -40 70 -18 18 -27 33 -20 33 7 0 25 -14 39 -30 70 -83 30 -210 -75 -242
l-39 -11 0 -56 0 -56 505 505 c278 278 505 506 505 507 0 2 -98 3 -219 3
l-218 0 -198 -296 c-108 -162 -199 -293 -202 -290 -3 3 80 134 186 291 105
157 191 287 191 290 0 3 -41 5 -91 5 l-91 0 -130 -267 c-71 -148 -132 -270
-134 -272 -22 -23 7 44 117 268 71 145 129 266 129 268 0 1 -74 3 -165 3
l-165 0 0 -337z m700 262 c0 -4 -472 -569 -493 -590 -7 -7 -8 -4 -4 7 8 22
482 588 493 588 2 0 4 -2 4 -5z m-550 -529 c0 -3 -4 -8 -10 -11 -5 -3 -10 -1
-10 4 0 6 5 11 10 11 6 0 10 -2 10 -4z m35 -86 c-3 -5 -11 -10 -16 -10 -6 0
-7 5 -4 10 3 6 11 10 16 10 6 0 7 -4 4 -10z"/>
<path d="M1050 6248 c0 -7 -62 -75 -137 -150 l-138 -138 110 0 110 0 150 150
150 150 -123 0 c-90 0 -122 -3 -122 -12z"/>
<path d="M1165 6110 l-150 -150 55 0 55 0 150 150 150 150 -55 0 -55 0 -150
-150z"/>
<path d="M1295 6110 l-150 -150 60 0 60 0 143 143 c78 78 142 146 142 150 0 4
-24 7 -53 7 l-52 0 -150 -150z"/>
<path d="M1580 6252 c0 -4 64 -72 143 -150 l144 -142 59 0 59 0 -150 150 -150
150 -52 0 c-29 0 -53 -4 -53 -8z"/>
<path d="M1855 6110 l150 -150 55 0 55 0 -150 150 -150 150 -55 0 -55 0 150
-150z"/>
<path d="M1985 6110 l150 -150 110 0 110 0 -138 138 c-75 75 -137 143 -137
150 0 9 -32 12 -122 12 l-123 0 150 -150z"/>
<path d="M2623 5753 l507 -508 507 508 508 507 -221 0 -221 0 -198 -295 c-108
-163 -200 -294 -203 -291 -3 3 81 134 186 291 106 156 192 287 192 290 0 3
-41 5 -91 5 l-90 0 -131 -267 c-71 -148 -132 -270 -134 -272 -22 -22 7 43 117
268 71 145 129 266 129 268 0 1 -74 3 -165 3 l-165 0 0 -337 0 -338 25 -24
c14 -13 25 -33 25 -46 0 -64 -91 -93 -126 -40 -19 29 -13 68 16 93 19 16 20
30 20 354 l0 338 -165 0 c-91 0 -165 -2 -165 -3 0 -2 58 -123 129 -268 71
-145 127 -266 125 -268 -6 -7 -6 -8 -142 272 l-130 267 -91 0 c-50 0 -91 -3
-91 -6 0 -3 86 -134 191 -290 106 -157 190 -287 187 -290 -3 -2 -94 128 -203
291 l-198 295 -221 0 -221 0 508 -507z m42 146 c130 -154 239 -288 242 -297 4
-11 3 -14 -4 -7 -23 23 -493 586 -493 591 0 14 36 -27 255 -287z m1179 279
c-6 -11 -454 -548 -485 -582 -6 -6 -9 -6 -9 1 0 10 397 490 468 566 27 29 38
35 26 15z m-864 -528 c0 -5 -2 -10 -4 -10 -3 0 -8 5 -11 10 -3 6 -1 10 4 10 6
0 11 -4 11 -10z m320 6 c0 -3 -4 -8 -10 -11 -5 -3 -10 -1 -10 4 0 6 5 11 10
11 6 0 10 -2 10 -4z m-47 -58 c28 -37 33 -107 12 -151 -19 -42 -68 -75 -119
-84 -42 -7 -112 25 -140 63 -21 29 -32 91 -22 128 8 32 54 86 73 86 9 0 3 -10
-16 -26 -45 -38 -58 -92 -37 -148 21 -56 66 -86 126 -86 60 0 105 30 126 86
21 56 8 110 -36 148 -17 13 -30 28 -30 32 0 11 43 -22 63 -48z m-308 -28 c3
-5 2 -10 -4 -10 -5 0 -13 5 -16 10 -3 6 -2 10 4 10 5 0 13 -4 16 -10z m390 0
c-3 -5 -11 -10 -16 -10 -6 0 -7 5 -4 10 3 6 11 10 16 10 6 0 7 -4 4 -10z"/>
<path d="M4184 6253 c4 -4 -58 -71 -136 -150 l-143 -143 110 0 110 0 150 150
150 150 -124 0 c-69 0 -121 -3 -117 -7z"/>
<path d="M4295 6110 l-150 -150 55 0 55 0 150 150 150 150 -55 0 -55 0 -150
-150z"/>
<path d="M4425 6110 l-150 -150 60 0 60 0 143 143 c78 78 142 146 142 150 0 4
-24 7 -53 7 l-52 0 -150 -150z"/>
<path d="M4710 6252 c0 -4 64 -71 143 -150 l142 -142 60 0 60 0 -150 150 -150
150 -52 0 c-29 0 -53 -3 -53 -8z"/>
<path d="M4985 6110 l150 -150 55 0 55 0 -150 150 -150 150 -55 0 -55 0 150
-150z"/>
<path d="M5115 6110 l150 -150 110 0 110 0 -143 143 c-78 79 -140 146 -136
150 4 4 -48 7 -117 7 l-124 0 150 -150z"/>
<path d="M5750 5755 c278 -278 506 -505 507 -505 2 0 3 24 3 54 0 50 -2 54
-27 61 -75 18 -123 77 -123 150 0 53 44 125 78 125 7 0 0 -12 -17 -26 -45 -38
-58 -92 -37 -148 18 -48 65 -86 105 -86 17 0 21 6 21 35 0 28 -4 35 -19 35
-24 0 -51 36 -51 66 0 12 11 32 25 45 l25 24 0 338 0 337 -165 0 c-91 0 -165
-2 -165 -4 0 -1 58 -122 129 -267 110 -224 139 -292 117 -268 -2 2 -63 124
-134 272 l-130 267 -91 0 c-50 0 -91 -3 -91 -6 0 -3 86 -133 191 -290 105
-157 189 -287 186 -290 -3 -3 -94 128 -202 290 l-198 296 -221 0 -221 0 505
-505z m45 144 c130 -154 239 -288 242 -297 4 -11 3 -14 -4 -7 -25 25 -493 586
-493 591 0 14 36 -26 255 -287z m315 -249 c0 -5 -2 -10 -4 -10 -3 0 -8 5 -11
10 -3 6 -1 10 4 10 6 0 11 -4 11 -10z m-35 -80 c3 -5 2 -10 -4 -10 -5 0 -13 5
-16 10 -3 6 -2 10 4 10 5 0 13 -4 16 -10z"/>
<path d="M1427 6103 l-137 -138 83 -3 82 -3 55 -54 56 -55 54 55 54 54 83 3
83 3 -138 138 -138 137 -137 -137z"/>
<path d="M4556 6102 l-137 -137 83 -3 83 -3 55 -54 56 -55 54 55 54 54 83 3
84 3 -119 120 c-65 66 -128 128 -138 137 -20 17 -24 14 -158 -120z"/>
<path d="M638 5823 l-98 -98 0 -472 c0 -331 3 -474 11 -479 6 -3 30 12 53 35
l42 41 84 -85 84 -85 -42 -43 -42 -43 43 -42 42 -42 375 375 375 375 375 -375
375 -375 43 43 42 43 -42 42 -43 42 85 85 84 85 42 -41 c23 -23 47 -38 53 -35
8 5 11 148 11 479 l0 472 -100 100 -100 100 0 -345 0 -345 -345 345 -345 345
-68 -68 -67 -67 -68 68 -67 67 -345 -345 -345 -345 -2 343 -3 342 -97 -97z
m1592 -888 l-85 -85 -285 285 c-157 157 -290 285 -295 285 -5 0 -138 -128
-295 -285 l-285 -285 -85 85 -85 85 375 375 375 375 375 -375 375 -375 -85
-85z m-1355 -35 l80 -80 -53 -52 -52 -53 -85 85 -85 84 47 48 c26 26 52 48 58
48 6 0 46 -36 90 -80z m1528 32 l47 -48 -85 -84 -85 -85 -52 53 -53 52 80 80
c44 44 84 80 90 80 6 0 32 -22 58 -48z"/>
<path d="M1277 5332 c-231 -231 -286 -291 -275 -300 11 -9 69 44 288 263 l275
275 276 -276 c221 -221 278 -273 287 -262 9 11 -47 72 -276 301 l-287 287
-288 -288z"/>
<path d="M755 5910 c-8 -13 -5 -630 3 -630 4 0 151 144 327 320 l320 320 -322
0 c-195 0 -324 -4 -328 -10z"/>
<path d="M2045 5600 c176 -176 323 -320 326 -320 4 0 7 144 8 320 l2 320 -328
0 -328 0 320 -320z"/>
<path d="M3768 5823 l-98 -98 0 -472 c0 -331 3 -474 11 -479 6 -3 30 12 53 35
l42 42 80 -81 c43 -44 80 -84 82 -88 1 -4 -16 -25 -38 -47 l-40 -39 42 -43 43
-43 375 375 375 375 375 -375 375 -375 42 42 43 42 -42 43 -42 43 84 85 84 85
42 -41 c23 -23 47 -38 53 -35 8 5 11 148 11 479 l0 472 -100 100 -100 100 0
-345 0 -345 -345 345 -345 345 -68 -68 -67 -67 -68 68 -67 67 -345 -345 -345
-345 -2 343 -3 342 -97 -97z m1307 -433 l370 -370 -86 -86 -86 -86 -284 286
c-156 157 -288 286 -294 286 -5 0 -138 -128 -295 -285 l-285 -285 -85 85 -85
85 370 370 c203 204 374 370 380 370 6 0 177 -166 380 -370z m-1070 -490 l80
-80 -53 -52 -52 -53 -85 85 -85 84 47 48 c26 26 52 48 58 48 6 0 46 -36 90
-80z m1528 32 l47 -48 -84 -83 c-94 -94 -90 -93 -156 -18 l-33 38 79 80 c43
43 83 79 89 79 6 0 32 -22 58 -48z"/>
<path d="M4407 5332 c-231 -231 -286 -291 -275 -300 11 -9 69 44 288 263 l275
275 276 -276 c221 -221 278 -273 287 -262 9 11 -47 72 -276 301 l-287 287
-288 -288z"/>
<path d="M3881 5600 c-1 -176 2 -320 6 -320 4 0 152 144 328 320 l320 320
-326 0 -327 0 -1 -320z"/>
<path d="M5175 5600 c176 -176 323 -320 327 -320 4 0 7 144 7 320 l1 320 -328
0 -327 0 320 -320z"/>
<path d="M270 5455 l-225 -225 228 0 227 0 0 225 c0 124 -1 225 -3 225 -1 0
-103 -101 -227 -225z"/>
<path d="M2630 5455 l0 -225 227 0 228 0 -225 225 c-124 124 -226 225 -227
225 -2 0 -3 -101 -3 -225z"/>
<path d="M3400 5455 l-225 -225 228 0 227 0 0 225 c0 124 -1 225 -3 225 -1 0
-103 -101 -227 -225z"/>
<path d="M5760 5455 l0 -225 227 0 228 0 -225 225 c-124 124 -226 225 -227
225 -2 0 -3 -101 -3 -225z"/>
<path d="M1195 4870 l-369 -370 39 -40 39 -40 331 330 330 330 330 -330 330
-330 40 40 40 40 -370 370 -370 370 -370 -370z"/>
<path d="M4325 4870 l-369 -370 39 -40 39 -40 331 330 330 330 330 -330 330
-330 40 40 40 40 -370 370 -370 370 -370 -370z"/>
<path d="M0 5057 l0 -142 420 -420 420 -420 45 45 45 45 -340 340 -340 340 0
178 0 177 -125 0 -125 0 0 -143z"/>
<path d="M270 5022 l0 -177 335 -335 335 -335 37 38 38 37 -258 258 -257 257
0 218 0 217 -115 0 -115 0 0 -178z"/>
<path d="M2630 4983 l0 -218 -257 -257 -258 -258 38 -37 37 -38 335 335 335
335 0 177 0 178 -115 0 -115 0 0 -217z"/>
<path d="M2880 5023 l0 -178 -340 -340 -340 -340 45 -45 45 -45 420 420 420
420 420 -420 420 -420 45 45 45 45 -340 340 -340 340 0 178 0 177 -250 0 -250
0 0 -177z"/>
<path d="M3400 5022 l0 -177 335 -335 335 -335 37 38 38 37 -258 258 -257 257
0 218 0 217 -115 0 -115 0 0 -178z"/>
<path d="M5760 4983 l0 -218 -257 -257 -258 -258 38 -37 37 -38 335 335 335
335 0 177 0 178 -115 0 -115 0 0 -217z"/>
<path d="M6010 5023 l0 -178 -340 -340 -340 -340 45 -45 45 -45 420 420 420
420 0 142 0 143 -125 0 -125 0 0 -177z"/>
<path d="M1477 4932 l-87 -88 55 -54 55 -54 33 32 33 32 32 -32 32 -33 55 55
55 55 -88 88 -87 87 -88 -88z"/>
<path d="M4607 4932 l-87 -88 55 -54 55 -54 33 32 33 32 32 -32 32 -33 55 55
55 55 -88 88 -87 87 -88 -88z"/>
<path d="M1302 4757 l-62 -63 55 -54 55 -55 63 63 62 62 -55 55 -55 55 -63
-63z"/>
<path d="M1710 4765 l-55 -55 63 -63 62 -62 55 55 55 55 -63 63 -63 62 -54
-55z"/>
<path d="M4432 4757 l-62 -63 55 -54 55 -55 63 63 62 62 -55 55 -55 55 -63
-63z"/>
<path d="M4840 4765 l-55 -55 63 -63 62 -62 55 55 55 55 -63 63 -63 62 -54
-55z"/>
<path d="M1312 4497 l-242 -242 248 -248 247 -247 248 248 247 247 -243 243
c-133 133 -247 242 -252 242 -6 0 -119 -109 -253 -243z m454 -49 l193 -193
-197 -198 -197 -197 -197 197 -198 198 192 192 c106 106 197 193 202 193 5 0
96 -87 202 -192z"/>
<path d="M1373 4437 l-183 -182 188 -188 187 -187 188 188 187 187 -183 183
c-100 100 -187 182 -192 182 -6 0 -92 -82 -192 -183z m20 -145 l37 -38 -43
-42 -43 -42 -39 40 -39 40 39 40 c21 22 42 40 45 40 3 0 23 -17 43 -38z m432
-2 l39 -40 -39 -40 -39 -40 -43 42 -43 42 37 38 c20 21 40 38 43 38 3 0 24
-18 45 -40z"/>
<path d="M4442 4497 l-242 -242 248 -248 247 -247 248 248 247 247 -243 243
c-133 133 -247 242 -252 242 -6 0 -119 -109 -253 -243z m454 -49 l194 -193
-198 -198 -197 -197 -197 197 -197 197 192 193 c106 106 196 193 201 193 5 0
96 -87 202 -192z"/>
<path d="M4502 4437 l-182 -182 188 -188 187 -187 188 188 187 187 -183 183
c-100 100 -187 182 -192 182 -6 0 -92 -82 -193 -183z m21 -145 l37 -38 -43
-42 -43 -42 -39 40 -39 40 39 40 c21 22 42 40 45 40 3 0 23 -17 43 -38z m432
-2 l39 -40 -39 -40 -39 -40 -43 42 -43 42 37 38 c20 21 40 38 43 38 3 0 24
-18 45 -40z"/>
<path d="M1145 4600 l-59 -60 54 -55 54 -55 63 62 63 62 -52 53 c-29 29 -55
53 -58 53 -3 0 -32 -27 -65 -60z"/>
<path d="M1862 4607 l-52 -53 63 -62 63 -62 54 55 54 55 -59 60 c-33 33 -62
60 -65 60 -3 0 -29 -24 -58 -53z"/>
<path d="M4275 4600 l-59 -60 54 -55 54 -55 63 62 63 62 -52 53 c-29 29 -55
53 -58 53 -3 0 -32 -27 -65 -60z"/>
<path d="M4992 4607 l-52 -53 63 -62 63 -62 54 55 54 55 -59 60 c-33 33 -62
60 -65 60 -3 0 -29 -24 -58 -53z"/>
<path d="M21 3975 l1 -570 104 465 104 465 -105 105 -105 105 1 -570z"/>
<path d="M3004 4440 c-54 -56 -100 -102 -101 -104 -2 -1 44 -211 101 -467
l104 -464 1 568 c1 312 -1 567 -2 567 -2 0 -48 -45 -103 -100z"/>
<path d="M3151 3975 l1 -570 104 465 104 465 -105 105 -105 105 1 -570z"/>
<path d="M6132 4438 l-102 -103 102 -462 103 -462 3 285 c1 157 1 411 0 565
l-3 279 -103 -102z"/>
<path d="M995 4450 l-59 -60 54 -55 54 -55 58 57 c32 32 58 62 58 68 0 10 -91
105 -101 105 -2 0 -31 -27 -64 -60z"/>
<path d="M2017 4462 c-26 -26 -47 -52 -47 -58 0 -5 26 -35 58 -67 l58 -57 54
55 54 55 -59 60 c-33 33 -62 60 -65 60 -3 0 -27 -22 -53 -48z"/>
<path d="M4125 4450 l-59 -60 54 -55 54 -55 58 57 c32 32 58 62 58 68 0 10
-91 105 -101 105 -2 0 -31 -27 -64 -60z"/>
<path d="M5147 4462 c-26 -26 -47 -52 -47 -58 0 -5 26 -35 58 -67 l58 -57 54
55 54 55 -59 60 c-33 33 -62 60 -65 60 -3 0 -27 -22 -53 -48z"/>
<path d="M241 4209 c-83 -369 -189 -854 -187 -857 3 -2 402 705 411 728 3 10
-30 50 -99 119 l-104 103 -21 -93z"/>
<path d="M2764 4200 c-54 -55 -98 -107 -98 -115 2 -14 405 -737 410 -733 2 4
-204 940 -209 944 -2 2 -48 -42 -103 -96z"/>
<path d="M3376 4229 c-159 -716 -194 -874 -192 -876 3 -3 402 704 411 727 3
10 -30 50 -99 119 l-104 103 -16 -73z"/>
<path d="M5890 4195 c-89 -89 -103 -108 -94 -123 6 -9 100 -176 209 -369 109
-194 199 -352 201 -350 2 2 -205 939 -209 943 -2 2 -50 -44 -107 -101z"/>
<path d="M787 3972 l-247 -247 0 -110 0 -110 305 305 305 305 -52 52 c-29 29
-55 53 -58 53 -3 0 -116 -111 -253 -248z"/>
<path d="M2032 4167 l-52 -52 305 -305 305 -305 0 110 0 110 -248 248 c-136
136 -250 247 -252 247 -3 0 -29 -24 -58 -53z"/>
<path d="M3917 3972 l-247 -247 0 -110 0 -110 305 305 305 305 -52 52 c-29 29
-55 53 -58 53 -3 0 -116 -111 -253 -248z"/>
<path d="M5162 4167 l-52 -52 305 -305 305 -305 0 110 0 110 -248 248 c-136
136 -250 247 -252 247 -3 0 -29 -24 -58 -53z"/>
<path d="M927 3832 l-247 -247 0 -110 0 -110 305 305 305 305 -52 52 c-29 29
-55 53 -58 53 -3 0 -116 -111 -253 -248z"/>
<path d="M1892 4027 l-52 -52 305 -305 305 -305 0 110 0 110 -248 248 c-136
136 -250 247 -252 247 -3 0 -29 -24 -58 -53z"/>
<path d="M4057 3832 l-247 -247 0 -110 0 -110 305 305 305 305 -52 52 c-29 29
-55 53 -58 53 -3 0 -116 -111 -253 -248z"/>
<path d="M5022 4027 l-52 -52 305 -305 305 -305 0 110 0 110 -248 248 c-136
136 -250 247 -252 247 -3 0 -29 -24 -58 -53z"/>
<path d="M407 3894 c-262 -465 -307 -547 -304 -550 1 -2 129 123 282 276 l280
280 -81 81 -82 81 -95 -168z"/>
<path d="M2549 3985 c-41 -42 -75 -79 -77 -83 -1 -4 124 -133 278 -287 154
-154 280 -277 280 -274 0 8 -389 701 -399 712 -4 4 -41 -27 -82 -68z"/>
<path d="M3557 3929 c-41 -74 -132 -235 -201 -358 -70 -123 -125 -225 -123
-227 2 -2 129 123 282 276 l280 280 -81 81 -82 81 -75 -133z"/>
<path d="M5675 3980 l-80 -80 280 -280 c153 -153 280 -278 282 -276 3 3 -384
696 -396 708 -4 4 -43 -28 -86 -72z"/>
<path d="M1062 3697 l-252 -252 0 -110 0 -110 307 307 308 308 -55 55 -55 55
-253 -253z"/>
<path d="M1760 3895 l-55 -55 300 -300 c233 -233 301 -296 306 -282 3 9 7 55
8 101 l1 85 -252 253 -253 254 -55 -56z"/>
<path d="M4192 3697 l-252 -252 0 -110 0 -110 307 307 308 308 -55 55 -55 55
-253 -253z"/>
<path d="M4890 3895 l-55 -55 300 -300 c165 -165 303 -300 306 -300 4 0 6 47
5 105 l-2 106 -250 249 -249 250 -55 -55z"/>
<path d="M1317 3672 l-137 -137 0 -101 0 -100 50 -49 50 -49 138 137 c75 75
142 137 147 137 5 0 72 -62 147 -137 l138 -137 50 49 50 49 0 101 0 100 -138
138 -138 137 -49 -50 c-27 -27 -54 -50 -59 -50 -6 0 -33 22 -61 50 l-50 50
-138 -138z"/>
<path d="M4447 3672 l-137 -137 0 -101 0 -100 50 -49 50 -49 138 137 c75 75
142 137 147 137 5 0 72 -62 147 -137 l138 -137 50 49 50 49 0 101 0 100 -138
138 -138 137 -49 -50 c-27 -27 -54 -50 -59 -50 -6 0 -33 22 -61 50 l-50 50
-138 -138z"/>
<path d="M257 3443 l-237 -238 0 -375 c0 -361 1 -376 20 -392 11 -10 22 -29
26 -43 8 -32 -19 -75 -46 -75 -16 0 -20 -7 -20 -35 0 -29 4 -35 21 -35 63 0
127 89 114 157 -4 22 -20 50 -40 70 -18 18 -27 33 -21 33 14 0 48 -35 65 -67
32 -63 -5 -160 -74 -193 -23 -11 -47 -20 -53 -20 -8 0 -12 -20 -12 -57 l0 -58
510 510 510 510 0 120 0 120 -120 -120 c-66 -66 -120 -115 -121 -110 0 6 -1
65 -1 133 0 67 -2 122 -6 122 -4 0 -35 -28 -69 -62 l-63 -62 0 134 0 134 -70
-69 -69 -69 -3 137 -3 137 -238 -237z m108 -319 c-64 -132 -148 -305 -187
-386 -39 -82 -75 -148 -79 -148 -5 0 29 78 75 173 231 476 297 609 302 604 3
-3 -47 -112 -111 -243z m31 -260 c-120 -179 -220 -323 -223 -320 -3 2 93 151
213 330 119 180 219 324 222 321 3 -3 -93 -152 -212 -331z m324 191 c0 -4
-453 -547 -491 -589 -6 -6 -9 -6 -9 2 0 6 64 87 143 180 78 93 187 223 242
290 89 108 115 134 115 117z m-550 -529 c0 -3 -4 -8 -10 -11 -5 -3 -10 -1 -10
4 0 6 5 11 10 11 6 0 10 -2 10 -4z m35 -86 c-3 -5 -11 -10 -16 -10 -6 0 -7 5
-4 10 3 6 11 10 16 10 6 0 7 -4 4 -10z"/>
<path d="M2630 3545 l0 -139 -70 69 -70 69 0 -134 0 -134 -63 62 c-34 34 -66
62 -70 62 -4 0 -7 -60 -7 -132 l0 -133 -120 120 -120 120 0 -120 0 -120 510
-510 510 -510 510 510 510 510 0 120 0 120 -118 -118 c-65 -65 -120 -115 -123
-113 -3 3 -4 62 -3 131 2 69 0 125 -4 125 -4 0 -35 -28 -69 -62 l-63 -62 0
134 0 134 -70 -69 -70 -69 0 139 0 140 -240 -240 -240 -240 0 -375 c0 -361 1
-376 20 -392 11 -10 22 -29 26 -43 16 -66 -73 -106 -118 -53 -24 28 -22 51 7
86 l25 30 0 374 0 373 -240 240 -240 240 0 -140z m142 -402 c220 -453 267
-553 259 -553 -4 0 -35 57 -69 128 -33 70 -117 243 -186 384 -69 142 -126 260
-126 263 0 22 25 -24 122 -222z m723 -20 c-64 -131 -148 -304 -187 -385 -39
-82 -75 -148 -79 -148 -4 0 29 78 75 173 234 483 297 609 302 604 3 -3 -47
-112 -111 -244z m-745 -256 c117 -175 210 -320 207 -323 -6 -6 -424 615 -434
644 -12 34 17 -7 227 -321z m776 -3 c-120 -179 -220 -323 -223 -320 -3 3 93
152 213 330 119 179 220 324 222 321 3 -3 -93 -152 -212 -331z m-862 -92 c132
-158 242 -294 244 -302 3 -10 1 -12 -5 -5 -23 23 -493 586 -493 590 0 18 41
-27 254 -283z m1179 274 c-4 -8 -109 -134 -233 -281 -124 -147 -233 -277 -242
-288 -9 -12 -19 -19 -22 -16 -7 7 488 599 500 599 3 0 1 -6 -3 -14z m-863
-526 c0 -5 -2 -10 -4 -10 -3 0 -8 5 -11 10 -3 6 -1 10 4 10 6 0 11 -4 11 -10z
m320 6 c0 -3 -4 -8 -10 -11 -5 -3 -10 -1 -10 4 0 6 5 11 10 11 6 0 10 -2 10
-4z m-259 -41 c-45 -39 -59 -92 -37 -149 45 -116 207 -116 252 0 21 56 8 110
-37 148 -17 14 -24 26 -17 26 16 0 50 -34 67 -67 32 -63 -3 -159 -72 -192 -55
-27 -84 -26 -137 2 -96 51 -108 180 -24 246 38 30 43 17 5 -14z m-96 -45 c3
-5 2 -10 -4 -10 -5 0 -13 5 -16 10 -3 6 -2 10 4 10 5 0 13 -4 16 -10z m390 0
c-3 -5 -11 -10 -16 -10 -6 0 -7 5 -4 10 3 6 11 10 16 10 6 0 7 -4 4 -10z"/>
<path d="M5760 3545 l0 -139 -70 69 -70 69 0 -134 0 -134 -63 62 c-34 34 -66
62 -70 62 -4 0 -7 -60 -7 -132 l0 -133 -120 120 -120 120 0 -120 0 -120 510
-510 510 -510 0 58 c0 37 -4 57 -12 57 -6 0 -30 9 -53 20 -69 33 -106 130 -74
193 17 33 51 67 67 67 7 0 0 -12 -17 -26 -45 -38 -58 -92 -37 -148 18 -48 65
-86 105 -86 17 0 21 6 21 35 0 28 -4 35 -19 35 -22 0 -51 35 -51 61 0 10 11
31 25 47 l25 30 0 374 0 373 -240 240 -240 240 0 -140z m142 -402 c229 -471
265 -548 262 -552 -2 -2 -6 -2 -8 0 -6 6 -376 768 -376 774 0 22 26 -24 122
-222z m-22 -276 c117 -174 210 -320 207 -323 -6 -6 -424 614 -434 644 -12 34
17 -8 227 -321z m-279 135 c25 -31 134 -162 242 -291 109 -128 197 -238 197
-244 0 -6 -17 9 -37 33 -114 133 -463 552 -463 556 0 14 21 -4 61 -54z m509
-482 c0 -5 -2 -10 -4 -10 -3 0 -8 5 -11 10 -3 6 -1 10 4 10 6 0 11 -4 11 -10z
m-35 -80 c3 -5 2 -10 -4 -10 -5 0 -13 5 -16 10 -3 6 -2 10 4 10 5 0 13 -4 16
-10z"/>
<path d="M1113 3468 l-53 -54 0 -149 0 -148 -142 -144 -142 -143 110 0 109 0
285 285 285 285 285 -285 285 -285 110 0 109 0 -142 143 -142 144 0 149 0 150
-55 54 -55 54 0 -100 0 -100 -55 -54 -55 -55 -143 143 -142 142 -142 -142
-143 -143 -55 55 -54 54 -3 98 -3 99 -52 -53z"/>
<path d="M4243 3468 l-53 -54 0 -149 0 -148 -142 -144 -142 -143 110 0 109 0
285 285 285 285 285 -285 285 -285 110 0 109 0 -142 143 -142 144 0 149 0 150
-55 54 -55 54 0 -100 0 -100 -55 -54 -55 -55 -143 143 -142 142 -142 -142
-143 -143 -55 55 -54 54 -3 98 -3 99 -52 -53z"/>
<path d="M1460 3245 l-95 -95 200 0 200 0 -95 95 c-52 52 -99 95 -105 95 -6 0
-53 -43 -105 -95z"/>
<path d="M4590 3245 l-95 -95 200 0 200 0 -95 95 c-52 52 -99 95 -105 95 -6 0
-53 -43 -105 -95z"/>
<path d="M1155 2970 l-140 -140 55 0 55 0 140 140 140 140 -55 0 -55 0 -140
-140z"/>
<path d="M1285 2970 l-140 -140 60 0 60 0 140 140 140 140 -60 0 -60 0 -140
-140z"/>
<path d="M1425 2970 l-140 -140 85 0 86 0 54 -55 54 -55 56 55 55 54 83 3 82
3 -137 138 -138 137 -140 -140z"/>
<path d="M1725 2970 l140 -140 60 0 60 0 -140 140 -140 140 -60 0 -60 0 140
-140z"/>
<path d="M1865 2970 l140 -140 55 0 55 0 -140 140 -140 140 -55 0 -55 0 140
-140z"/>
<path d="M4285 2970 l-140 -140 55 0 55 0 140 140 140 140 -55 0 -55 0 -140
-140z"/>
<path d="M4415 2970 l-140 -140 60 0 60 0 140 140 140 140 -60 0 -60 0 -140
-140z"/>
<path d="M4557 2973 l-138 -138 83 -3 83 -3 55 -54 56 -55 54 55 54 54 83 3
83 3 -138 138 -137 137 -138 -137z"/>
<path d="M4855 2970 l140 -140 60 0 60 0 -140 140 -140 140 -60 0 -60 0 140
-140z"/>
<path d="M4995 2970 l140 -140 55 0 55 0 -140 140 -140 140 -55 0 -55 0 140
-140z"/>
<path d="M638 2693 l-98 -98 0 -472 c0 -331 3 -474 11 -479 6 -3 30 12 53 35
l42 41 84 -85 84 -85 -42 -43 -42 -43 43 -42 42 -42 375 375 375 375 375 -375
375 -375 43 43 42 43 -42 42 -43 42 85 85 84 85 42 -41 c23 -23 47 -38 53 -35
8 5 11 148 11 479 l0 472 -100 100 -100 100 0 -345 0 -345 -345 345 -345 345
-68 -68 -67 -67 -68 68 -67 67 -345 -345 -345 -345 -2 343 -3 342 -97 -97z
m1592 -888 l-85 -85 -285 285 c-157 157 -290 285 -295 285 -5 0 -138 -128
-295 -285 l-285 -285 -85 85 -85 85 375 375 375 375 375 -375 375 -375 -85
-85z m136 -134 l-84 -84 -34 29 c-19 16 -42 40 -52 53 l-18 23 83 84 83 84 53
-52 53 -53 -84 -84z m-1491 99 l80 -80 -53 -52 -52 -53 -85 85 -85 84 47 48
c26 26 52 48 58 48 6 0 46 -36 90 -80z"/>
<path d="M1277 2202 c-231 -231 -286 -291 -275 -300 11 -9 69 44 288 263 l275
275 276 -276 c221 -221 278 -273 287 -262 9 11 -47 72 -276 301 l-287 287
-288 -288z"/>
<path d="M756 2783 c-9 -9 -7 -633 2 -633 4 0 151 144 327 320 l320 320 -321
0 c-176 0 -324 -3 -328 -7z"/>
<path d="M2045 2470 c176 -176 323 -320 327 -320 4 0 7 144 7 320 l0 320 -327
0 -327 0 320 -320z"/>
<path d="M3768 2693 l-98 -98 0 -472 c0 -331 3 -474 11 -479 6 -3 30 12 53 35
l42 41 84 -85 84 -85 -42 -43 -42 -43 43 -42 42 -42 375 375 375 375 375 -375
376 -375 37 38 c20 21 37 42 37 46 0 5 -18 25 -41 44 l-41 35 88 88 88 89 42
-41 c23 -23 47 -38 53 -35 8 5 11 148 11 479 l0 472 -100 100 -100 100 0 -345
0 -345 -345 345 -345 345 -68 -68 -67 -67 -68 68 -67 67 -345 -345 -345 -345
-2 343 -3 342 -97 -97z m1589 -890 l-89 -88 -283 288 c-155 158 -286 287 -291
287 -5 0 -137 -128 -294 -285 l-285 -285 -85 85 -85 85 375 375 375 375 375
-375 375 -375 -88 -87z m-1352 -33 l80 -80 -53 -52 -52 -53 -85 85 -85 84 47
48 c26 26 52 48 58 48 6 0 46 -36 90 -80z m1527 33 l48 -47 -86 -87 -86 -86
-51 54 -51 54 79 79 c44 44 84 80 89 80 6 0 32 -21 58 -47z"/>
<path d="M4407 2202 c-231 -231 -286 -291 -275 -300 11 -9 69 44 288 263 l275
275 276 -276 c221 -221 278 -273 287 -262 9 11 -47 72 -276 301 l-287 287
-288 -288z"/>
<path d="M3881 2476 c-1 -173 2 -317 7 -320 4 -2 152 139 328 315 l319 319
-327 0 -326 0 -1 -314z"/>
<path d="M5175 2470 c176 -176 323 -320 326 -320 3 0 7 144 7 320 l1 320 -327
0 -327 0 320 -320z"/>
<path d="M270 2325 l-225 -225 228 0 227 0 0 225 c0 124 -1 225 -3 225 -1 0
-103 -101 -227 -225z"/>
<path d="M2630 2325 l0 -225 227 0 228 0 -225 225 c-124 124 -226 225 -227
225 -2 0 -3 -101 -3 -225z"/>
<path d="M3400 2325 l-225 -225 228 0 227 1 0 225 c0 123 -1 224 -3 224 -1 0
-103 -101 -227 -225z"/>
<path d="M5760 2325 l0 -225 227 0 228 0 -225 225 c-124 124 -226 225 -227
225 -2 0 -3 -101 -3 -225z"/>
<path d="M1195 1740 l-369 -370 39 -40 39 -40 331 330 330 330 330 -330 330
-330 40 40 40 40 -370 370 -370 370 -370 -370z"/>
<path d="M4325 1740 l-369 -370 39 -40 39 -40 331 330 330 330 330 -330 330
-330 40 40 40 40 -370 370 -370 370 -370 -370z"/>
<path d="M0 1927 l0 -142 420 -420 420 -420 45 45 45 45 -340 340 -340 340 0
178 0 177 -125 0 -125 0 0 -143z"/>
<path d="M270 1892 l0 -177 335 -335 335 -335 37 38 38 37 -258 258 -257 257
0 218 0 217 -115 0 -115 0 0 -178z"/>
<path d="M2630 1853 l0 -218 -257 -257 -258 -258 38 -37 37 -38 335 335 335
335 0 177 0 178 -115 0 -115 0 0 -217z"/>
<path d="M2880 1893 l0 -178 -340 -340 -340 -340 45 -45 45 -45 420 420 420
420 420 -420 420 -420 45 45 45 45 -340 340 -340 340 0 178 0 177 -250 0 -250
0 0 -177z"/>
<path d="M3400 1892 l0 -177 335 -335 335 -335 37 38 38 37 -258 258 -257 257
0 218 0 217 -115 0 -115 0 0 -178z"/>
<path d="M5760 1853 l0 -218 -257 -257 -258 -258 38 -37 37 -38 335 335 335
335 0 177 0 178 -115 0 -115 0 0 -217z"/>
<path d="M6010 1893 l0 -178 -340 -340 -340 -340 45 -45 45 -45 420 420 420
420 0 142 0 143 -125 0 -125 0 0 -177z"/>
<path d="M1477 1802 l-87 -88 55 -54 55 -54 33 32 33 32 32 -32 32 -33 55 55
55 55 -88 88 -87 87 -88 -88z"/>
<path d="M4607 1802 l-87 -88 55 -54 55 -54 33 32 33 32 32 -32 32 -33 55 55
55 55 -88 88 -87 87 -88 -88z"/>
<path d="M1302 1627 l-62 -63 55 -54 55 -55 63 63 62 62 -55 55 -55 55 -63
-63z"/>
<path d="M1710 1635 l-55 -55 63 -63 62 -62 55 55 55 55 -63 63 -63 62 -54
-55z"/>
<path d="M4432 1627 l-62 -63 55 -54 55 -55 63 63 62 62 -55 55 -55 55 -63
-63z"/>
<path d="M4840 1635 l-55 -55 63 -63 62 -62 55 55 55 55 -63 63 -63 62 -54
-55z"/>
<path d="M1312 1367 l-242 -242 248 -248 247 -247 248 248 247 247 -243 243
c-133 133 -247 242 -252 242 -6 0 -119 -109 -253 -243z m455 -49 l193 -193
-197 -197 -198 -198 -197 197 -197 197 192 193 c106 106 196 193 202 193 5 0
96 -87 202 -192z"/>
<path d="M1372 1307 l-182 -182 188 -188 187 -187 188 188 187 187 -183 183
c-101 100 -188 182 -193 182 -5 0 -91 -82 -192 -183z m21 -145 l37 -38 -43
-42 -43 -42 -39 40 -39 40 39 40 c21 22 42 40 45 40 3 0 23 -17 43 -38z m432
-2 l39 -40 -39 -40 -39 -40 -43 42 -43 42 37 38 c20 21 40 38 43 38 3 0 24
-18 45 -40z"/>
<path d="M4442 1367 l-242 -242 248 -248 247 -247 248 248 247 247 -243 243
c-133 133 -247 242 -252 242 -6 0 -119 -109 -253 -243z m454 -49 l193 -193
-197 -198 -197 -197 -197 197 -197 197 192 193 c106 106 196 193 201 193 5 0
96 -87 202 -192z"/>
<path d="M4502 1307 l-182 -182 188 -188 187 -187 188 188 187 187 -183 183
c-100 100 -187 182 -192 182 -6 0 -92 -82 -193 -183z m21 -145 l37 -38 -43
-42 -43 -42 -39 40 -39 40 39 40 c21 22 42 40 45 40 3 0 23 -17 43 -38z m432
-2 l39 -40 -39 -40 -39 -40 -43 42 -43 42 37 38 c20 21 40 38 43 38 3 0 24
-18 45 -40z"/>
<path d="M1145 1470 l-59 -60 54 -55 54 -55 63 62 63 62 -52 53 c-29 29 -55
53 -58 53 -3 0 -32 -27 -65 -60z"/>
<path d="M1862 1477 l-52 -53 63 -62 63 -62 54 55 54 55 -59 60 c-33 33 -62
60 -65 60 -3 0 -29 -24 -58 -53z"/>
<path d="M4275 1470 l-59 -60 54 -55 54 -55 63 62 63 62 -52 53 c-29 29 -55
53 -58 53 -3 0 -32 -27 -65 -60z"/>
<path d="M4992 1477 l-52 -53 63 -62 63 -62 54 55 54 55 -59 60 c-33 33 -62
60 -65 60 -3 0 -29 -24 -58 -53z"/>
<path d="M21 844 c0 -313 2 -564 4 -559 7 18 193 869 197 897 2 22 -12 42 -78
110 -45 46 -91 92 -103 102 l-21 19 1 -569z"/>
<path d="M3002 1307 l-102 -102 104 -465 104 -465 1 568 c1 312 0 567 -2 567
-1 0 -48 -46 -105 -103z"/>
<path d="M3151 845 l1 -570 104 465 104 465 -105 105 -105 105 1 -570z"/>
<path d="M6133 1308 l-102 -103 102 -463 102 -463 3 286 c1 158 1 412 0 566
l-3 279 -102 -102z"/>
<path d="M995 1320 l-59 -60 54 -55 54 -55 58 57 c32 32 58 62 58 68 0 10 -91
105 -101 105 -2 0 -31 -27 -64 -60z"/>
<path d="M2017 1332 c-26 -26 -47 -52 -47 -58 0 -5 26 -35 58 -67 l58 -57 54
55 54 55 -59 60 c-33 33 -62 60 -65 60 -3 0 -27 -22 -53 -48z"/>
<path d="M4125 1320 l-59 -60 54 -55 54 -55 58 57 c32 32 58 62 58 68 0 10
-91 105 -101 105 -2 0 -31 -27 -64 -60z"/>
<path d="M5147 1332 c-26 -26 -47 -52 -47 -58 0 -5 26 -35 58 -67 l58 -57 54
55 54 55 -59 60 c-33 33 -62 60 -65 60 -3 0 -27 -22 -53 -48z"/>
<path d="M246 1098 c-159 -717 -194 -873 -191 -876 2 -2 197 342 388 686 l29
53 -43 47 c-24 26 -72 73 -105 105 l-62 58 -16 -73z"/>
<path d="M2761 1066 c-57 -57 -101 -108 -99 -112 87 -159 412 -734 413 -732 3
3 -197 911 -206 936 -2 7 -48 -32 -108 -92z"/>
<path d="M3376 1099 c-9 -41 -56 -254 -105 -474 -49 -220 -88 -401 -87 -403 3
-2 401 704 410 728 4 10 -29 50 -98 119 l-104 104 -16 -74z"/>
<path d="M5890 1065 l-103 -103 179 -319 c98 -175 191 -342 207 -371 16 -29
31 -52 33 -50 1 2 -4 30 -12 63 -8 33 -55 244 -104 469 -50 225 -91 411 -93
412 -2 2 -50 -43 -107 -101z"/>
<path d="M787 842 l-247 -247 0 -110 0 -110 305 305 305 305 -52 52 c-29 29
-55 53 -58 53 -3 0 -116 -111 -253 -248z"/>
<path d="M2032 1037 l-52 -52 305 -305 305 -305 0 110 0 110 -248 248 c-136
136 -250 247 -252 247 -3 0 -29 -24 -58 -53z"/>
<path d="M3917 842 l-247 -247 0 -110 0 -110 305 305 305 305 -52 52 c-29 29
-55 53 -58 53 -3 0 -116 -111 -253 -248z"/>
<path d="M5162 1037 l-52 -52 305 -305 305 -305 0 110 0 110 -248 248 c-136
136 -250 247 -252 247 -3 0 -29 -24 -58 -53z"/>
<path d="M927 702 l-247 -247 0 -110 0 -110 305 305 305 305 -52 52 c-29 29
-55 53 -58 53 -3 0 -116 -111 -253 -248z"/>
<path d="M1892 897 l-52 -52 305 -305 305 -305 0 110 0 110 -248 248 c-136
136 -250 247 -252 247 -3 0 -29 -24 -58 -53z"/>
<path d="M4057 702 l-247 -247 0 -110 0 -110 305 305 305 305 -52 52 c-29 29
-55 53 -58 53 -3 0 -116 -111 -253 -248z"/>
<path d="M5022 897 l-52 -52 305 -305 305 -305 0 110 0 110 -248 248 c-136
136 -250 247 -252 247 -3 0 -29 -24 -58 -53z"/>
<path d="M427 798 c-41 -73 -132 -234 -201 -357 -69 -123 -125 -226 -123 -227
2 -2 128 122 282 276 l279 279 -54 58 c-30 32 -67 68 -82 81 l-27 22 -74 -132z"/>
<path d="M2547 853 c-42 -42 -77 -79 -77 -82 0 -3 126 -132 280 -286 154 -154
280 -277 280 -274 0 7 -389 701 -399 711 -3 4 -41 -27 -84 -69z"/>
<path d="M3627 924 c-30 -51 -361 -643 -377 -675 -17 -35 35 13 262 238 l283
283 -81 81 c-45 45 -84 77 -87 73z"/>
<path d="M5675 850 l-80 -80 280 -280 c153 -153 280 -278 282 -276 3 3 -384
695 -396 708 -4 4 -43 -28 -86 -72z"/>
<path d="M1062 567 l-252 -253 0 -109 0 -110 307 307 308 308 -55 55 -55 55
-253 -253z"/>
<path d="M1760 765 l-55 -55 300 -300 c164 -164 302 -297 306 -295 3 3 6 49 7
102 l0 98 -252 253 -251 253 -55 -56z"/>
<path d="M4192 567 l-252 -252 0 -110 0 -110 307 307 308 308 -55 55 -55 55
-253 -253z"/>
<path d="M4890 765 l-55 -55 300 -300 c164 -164 302 -297 305 -295 4 2 6 50 5
105 l-1 101 -250 250 -249 249 -55 -55z"/>
<path d="M1317 542 l-137 -137 0 -101 0 -100 50 -49 50 -49 138 137 c75 75
142 137 147 137 5 0 72 -62 147 -137 l138 -137 50 49 50 49 0 101 0 100 -138
138 -138 137 -49 -50 c-27 -27 -54 -50 -59 -50 -6 0 -33 22 -61 50 l-50 50
-138 -138z"/>
<path d="M4447 542 l-137 -137 0 -101 0 -100 50 -49 50 -49 138 137 c75 75
142 137 147 137 5 0 72 -62 147 -137 l138 -137 50 49 50 49 0 101 0 100 -138
138 -138 137 -49 -50 c-27 -27 -54 -50 -59 -50 -6 0 -33 22 -61 50 l-50 50
-138 -138z"/>
<path d="M257 313 c-225 -226 -237 -240 -237 -276 l0 -37 168 0 167 1 58 121
c31 67 60 119 63 115 3 -3 -4 -24 -16 -47 -12 -23 -37 -75 -55 -116 l-34 -74
94 0 93 0 22 36 c12 19 25 33 27 30 3 -3 -2 -17 -11 -30 -9 -14 -16 -28 -16
-31 0 -3 99 -5 220 -5 l220 0 0 122 0 123 -118 -118 c-64 -64 -119 -117 -122
-117 -3 0 -5 58 -4 130 0 71 -2 130 -5 130 -3 0 -34 -28 -68 -62 l-63 -62 0
134 0 134 -70 -69 -69 -69 -3 137 -3 137 -238 -237z"/>
<path d="M2630 415 l0 -139 -70 69 -70 69 0 -134 0 -134 -63 62 c-34 34 -66
62 -70 62 -4 0 -7 -60 -7 -132 l0 -133 -120 120 -120 120 0 -123 0 -122 220 0
c121 0 220 2 220 5 0 3 -7 17 -16 31 -9 13 -14 27 -11 30 2 3 15 -11 27 -30
l22 -36 93 0 94 0 -34 74 c-18 41 -43 93 -55 116 -12 23 -19 45 -16 48 3 3 32
-49 63 -116 l58 -122 167 0 168 0 0 38 c0 35 -12 49 -240 277 l-240 240 0
-140z"/>
<path d="M3388 313 c-226 -226 -238 -240 -238 -276 l0 -37 168 0 167 1 58 121
c31 67 60 119 63 115 3 -3 -4 -24 -16 -47 -12 -23 -37 -75 -55 -116 l-34 -74
94 0 93 0 22 36 c12 19 25 33 27 30 3 -3 -2 -17 -11 -30 -9 -14 -16 -28 -16
-31 0 -3 99 -5 220 -5 l220 0 0 122 0 123 -118 -118 c-64 -64 -119 -117 -122
-117 -3 0 -4 59 -4 130 1 72 -1 130 -4 130 -4 0 -35 -28 -69 -62 l-63 -62 0
134 0 134 -70 -69 -69 -69 -3 137 -3 137 -237 -237z"/>
<path d="M5760 415 l0 -139 -70 69 -70 69 0 -134 0 -134 -63 62 c-34 34 -66
62 -70 62 -4 0 -7 -60 -7 -132 l0 -133 -120 120 -120 120 0 -123 0 -122 220 0
c121 0 220 2 220 5 0 3 -7 17 -16 31 -9 13 -14 27 -11 30 2 3 15 -11 27 -30
l22 -36 93 0 94 0 -34 74 c-18 41 -43 93 -55 116 -12 23 -19 44 -16 47 3 4 32
-48 63 -115 l58 -121 168 -1 167 0 0 38 c0 35 -12 49 -240 277 l-240 240 0
-140z"/>
<path d="M1113 338 l-53 -54 0 -142 0 -142 117 0 118 0 135 135 135 135 135
-135 135 -135 117 0 118 0 0 143 0 143 -55 54 -55 54 0 -100 0 -100 -55 -54
-55 -55 -143 143 -142 142 -142 -142 -143 -143 -55 55 -54 54 -3 98 -3 99 -52
-53z"/>
<path d="M4243 338 l-53 -54 0 -142 0 -142 117 0 118 0 135 135 135 135 135
-135 135 -135 117 0 118 0 0 143 0 143 -55 54 -55 54 0 -100 0 -100 -55 -54
-55 -55 -143 143 -142 142 -142 -142 -143 -143 -55 55 -54 54 -3 98 -3 99 -52
-53z"/>
<path d="M1460 115 l-95 -95 200 0 200 0 -95 95 c-52 52 -99 95 -105 95 -6 0
-53 -43 -105 -95z"/>
<path d="M4590 115 l-95 -95 200 0 200 0 -95 95 c-52 52 -99 95 -105 95 -6 0
-53 -43 -105 -95z"/>
</g>
</svg>
